<?xml version="1.0" standalone="no"?>
<!DOCTYPE svg PUBLIC "-//W3C//DTD SVG 20010904//EN"
 "http://www.w3.org/TR/2001/REC-SVG-20010904/DTD/svg10.dtd">
<svg version="1.0" xmlns="http://www.w3.org/2000/svg"
 width="260.000000pt" height="260.000000pt" viewBox="0 0 260.000000 260.000000"
 preserveAspectRatio="xMidYMid meet">
<metadata>
Created by potrace 1.11, written by Peter Selinger 2001-2013
</metadata>
<g transform="translate(0.000000,260.000000) scale(0.100000,-0.100000)"
fill="#000000" stroke="none">
<path d="M0 1300 l0 -1300 1300 0 1300 0 0 1300 0 1300 -1300 0 -1300 0 0
-1300z m1672 529 c233 -76 488 -242 713 -462 l90 -89 -60 -55 c-167 -153 -337
-274 -501 -356 -90 -45 -259 -108 -322 -120 l-33 -7 46 53 c104 119 185 338
185 501 -1 196 -75 378 -209 514 l-64 64 34 -7 c19 -4 73 -20 121 -36z m-679
6 c-84 -67 -187 -247 -217 -382 -47 -209 16 -470 155 -642 29 -36 43 -61 35
-61 -30 0 -205 63 -291 104 -101 50 -238 137 -335 215 -79 63 -220 201 -220
214 0 6 46 56 103 112 206 203 420 339 672 427 61 21 115 38 120 38 6 0 -4
-11 -22 -25z m401 -69 c23 -14 68 -52 99 -86 93 -100 147 -240 147 -384 0
-250 -194 -536 -365 -536 -99 0 -224 108 -295 255 -92 189 -93 380 -5 556 46
91 145 186 222 215 55 21 143 12 197 -20z"/>
<path d="M1230 1489 c-33 -13 -78 -56 -98 -94 -21 -40 -21 -150 1 -191 39 -74
121 -117 182 -94 75 28 119 98 119 190 0 72 -15 109 -61 152 -47 44 -93 56
-143 37z"/>
</g>
</svg>
